#!OML:ASF C:\Vicon Data\Big\jianyuan-13\jianyuan\Session 1\Capture.male.ASF
:FULLY-SPECIFIED
:DEGREES
153
root -7.308746 17.620515 -5.576897 10.984689 -0.913085 3.346628
lowerback -13.320079 2.980077 -3.483196 
upperback 0.268970 4.629449 -1.519249 
thorax 7.613015 2.146257 1.249659 
lowerneck -2.454556 -2.019834 2.596208 
upperneck -0.185243 -2.745887 -3.806209 
head 0.262601 -1.395286 -1.640166 
rclavicle 0.000000 0.000000 
rhumerus -36.530095 -16.873842 -82.935356 
rradius 31.525993 
rwrist 26.065025 
rhand -18.447587 -19.536625 
rfingers 0.000000 
rthumb 7.838330 -49.371273 
lclavicle 0.000000 0.000000 
lhumerus -50.819162 40.313010 57.315905 
lradius 23.879354 
lwrist -61.063205 
lhand -21.235873 1.536840 
lfingers 0.000000 
lthumb 5.146627 31.454328 
rfemur -18.898209 -8.240684 13.135078 
rtibia 75.605775 
rfoot 1.388354 -9.137552 
rtoes -34.561099 
lfemur -31.482113 -2.010671 -26.535124 
ltibia 30.645663 
lfoot -7.253096 3.404778 
ltoes -20.445012 
154
root -7.287250 17.632641 -5.493863 10.934700 -0.901972 3.424632
lowerback -13.214347 2.886323 -3.508927 
upperback 0.291801 4.503390 -1.503086 
thorax 7.579489 2.084540 1.251642 
lowerneck -2.452356 -1.966563 2.581238 
upperneck -0.171703 -2.674165 -3.773494 
head 0.269445 -1.359292 -1.626683 
rclavicle 0.000000 0.000000 
rhumerus -36.874065 -17.032989 -82.677859 
rradius 31.314105 
rwrist 26.193644 
rhand -18.410199 -19.469095 
rfingers 0.000000 
rthumb 7.874459 -49.302445 
lclavicle 0.000000 0.000000 
lhumerus -49.736239 40.143875 58.580580 
lradius 24.039040 
lwrist -59.156217 
lhand -20.356138 1.232931 
lfingers 0.000000 
lthumb 5.995993 31.128099 
rfemur -20.149411 -8.505162 13.029985 
rtibia 77.023031 
rfoot 1.289543 -8.943272 
rtoes -34.498755 
lfemur -31.008677 -1.915879 -26.755350 
ltibia 30.475806 
lfoot -7.369460 3.235388 
ltoes -20.907064 
155
root -7.267162 17.643703 -5.409507 10.853882 -0.875725 3.500044
lowerback -13.129912 2.755115 -3.514039 
upperback 0.339595 4.327905 -1.506550 
thorax 7.590173 1.998597 1.214537 
lowerneck -2.479805 -1.867675 2.570447 
upperneck -0.125267 -2.541624 -3.699696 
head 0.293873 -1.293053 -1.601101 
rclavicle 0.000000 0.000000 
rhumerus -37.188401 -17.163898 -82.510016 
rradius 31.056539 
rwrist 26.355194 
rhand -18.492104 -19.467053 
rfingers 0.000000 
rthumb 7.795395 -49.303339 
lclavicle 0.000000 0.000000 
lhumerus -48.857674 40.136771 59.438023 
lradius 23.951245 
lwrist -59.531640 
lhand -20.405849 1.439782 
lfingers 0.000000 
lthumb 5.947995 31.336280 
rfemur -21.397508 -8.726536 12.931006 
rtibia 78.400275 
rfoot 1.196540 -8.764733 
rtoes -33.654140 
lfemur -30.508247 -1.812994 -26.964806 
ltibia 30.310875 
lfoot -7.455690 3.068614 
ltoes -21.008163 
156
root -7.245434 17.652536 -5.327995 10.773497 -0.765848 3.588358
lowerback -12.979265 2.595335 -3.538655 
upperback 0.348961 4.110632 -1.485456 
thorax 7.520333 1.893512 1.201897 
lowerneck -2.415068 -1.778181 2.584436 
upperneck -0.107474 -2.421017 -3.694920 
head 0.292418 -1.232220 -1.600452 
rclavicle 0.000000 0.000000 
rhumerus -37.564423 -17.217368 -82.294719 
rradius 30.869397 
rwrist 26.598690 
rhand -18.636402 -19.739548 
rfingers 0.000000 
rthumb 7.656062 -49.580952 
lclavicle 0.000000 0.000000 
lhumerus -48.183248 40.122110 60.179015 
lradius 23.854165 
lwrist -60.791430 
lhand -20.903904 1.693361 
lfingers 0.000000 
lthumb 5.467131 31.602837 
rfemur -22.659209 -8.986567 12.859959 
rtibia 79.771032 
rfoot 1.072891 -8.431423 
rtoes -33.400068 
lfemur -30.021405 -1.829998 -27.165099 
ltibia 30.144819 
lfoot -7.648937 2.930105 
ltoes -20.483357 
157
root -7.225482 17.664192 -5.240517 10.543889 -0.722786 3.534815
lowerback -12.739770 2.499305 -3.468415 
upperback 0.418206 3.957590 -1.408840 
thorax 7.464177 1.821388 1.204669 
lowerneck -2.478733 -1.712214 2.571667 
upperneck 0.031652 -2.330556 -3.677578 
head 0.349562 -1.187979 -1.594142 
rclavicle 0.000000 0.000000 
rhumerus -37.965180 -17.248775 -82.090175 
rradius 30.803364 
rwrist 26.792961 
rhand -18.613375 -19.875208 
rfingers 0.000000 
rthumb 7.678322 -49.715792 
lclavicle 0.000000 0.000000 
lhumerus -47.027251 39.467829 61.773630 
lradius 23.906534 
lwrist -61.778150 
lhand -21.522346 3.316264 
lfingers 0.000000 
lthumb 4.869979 33.240276 
rfemur -23.772297 -9.251060 12.867766 
rtibia 81.071786 
rfoot 1.009970 -7.971295 
rtoes -33.572806 
lfemur -29.366550 -1.883185 -27.186069 
ltibia 30.013851 
lfoot -7.925218 2.897495 
ltoes -20.063082 
158
root -7.202151 17.673695 -5.158659 10.460952 -0.647202 3.550861
lowerback -12.614603 2.373537 -3.369446 
upperback 0.444425 3.769710 -1.396722 
thorax 7.434329 1.734239 1.122176 
lowerneck -2.476882 -1.637204 2.526258 
upperneck 0.095412 -2.228264 -3.583835 
head 0.373668 -1.136472 -1.555976 
rclavicle 0.000000 0.000000 
rhumerus -38.299757 -17.311858 -81.923834 
rradius 30.667417 
rwrist 26.903978 
rhand -18.562637 -19.813409 
rfingers 0.000000 
rthumb 7.727305 -49.652221 
lclavicle 0.000000 0.000000 
lhumerus -45.981814 39.103753 62.954934 
lradius 24.012387 
lwrist -61.337476 
lhand -21.334181 3.384792 
lfingers 0.000000 
lthumb 5.051700 33.304522 
rfemur -25.067031 -9.403952 12.872440 
rtibia 82.371550 
rfoot 0.946577 -7.555913 
rtoes -33.351844 
lfemur -28.919839 -1.919923 -27.299320 
ltibia 29.927655 
lfoot -8.010763 2.793834 
ltoes -20.598159 
159
root -7.184318 17.679487 -5.081334 10.359859 -0.623302 3.506157
lowerback -12.449554 2.270296 -3.289045 
upperback 0.469167 3.610673 -1.355834 
thorax 7.375550 1.660453 1.084200 
lowerneck -2.433675 -1.561281 2.554211 
upperneck 0.115808 -2.126454 -3.589970 
head 0.375721 -1.085281 -1.561639 
rclavicle 0.000000 0.000000 
rhumerus -38.695707 -17.291988 -81.795618 
rradius 30.642116 
rwrist 26.910710 
rhand -18.606508 -19.913328 
rfingers 0.000000 
rthumb 7.684953 -49.753711 
lclavicle 0.000000 0.000000 
lhumerus -45.101291 39.007405 63.841062 
lradius 24.052524 
lwrist -61.375405 
lhand -21.284377 3.307483 
lfingers 0.000000 
lthumb 5.099727 33.226073 
rfemur -26.397962 -9.580194 12.936018 
rtibia 83.657642 
rfoot 0.781556 -6.880641 
rtoes -33.470299 
lfemur -28.508654 -1.729564 -27.372250 
ltibia 29.900377 
lfoot -8.110413 2.578393 
ltoes -20.906596 
160
root -7.166033 17.687525 -5.002834 10.349593 -0.662182 3.504013
lowerback -12.381665 2.170428 -3.258111 
upperback 0.461476 3.467787 -1.327980 
thorax 7.334069 1.592544 1.067197 
lowerneck -2.421542 -1.470758 2.577327 
upperneck 0.162196 -2.004841 -3.611994 
head 0.391665 -1.024661 -1.572003 
rclavicle 0.000000 0.000000 
rhumerus -39.065711 -17.232571 -81.664777 
rradius 30.586925 
rwrist 26.987659 
rhand -18.653822 -19.899590 
rfingers 0.000000 
rthumb 7.639285 -49.741651 
lclavicle 0.000000 0.000000 
lhumerus -44.174448 38.816201 64.785746 
lradius 24.052680 
lwrist -61.126699 
lhand -21.299760 3.209174 
lfingers 0.000000 
lthumb 5.084885 33.128126 
rfemur -27.804941 -9.658081 12.986382 
rtibia 84.887189 
rfoot 0.687291 -6.373102 
rtoes -33.923685 
lfemur -28.212403 -1.475254 -27.502950 
ltibia 29.923319 
lfoot -8.230563 2.334860 
ltoes -21.166684 
161
root -7.142837 17.688636 -4.932258 10.382949 -0.582835 3.527503
lowerback -12.326403 2.041349 -3.171558 
upperback 0.445518 3.279349 -1.314330 
thorax 7.296577 1.504792 0.996535 
lowerneck -2.456362 -1.415144 2.576270 
upperneck 0.263747 -1.928862 -3.613295 
head 0.431519 -0.987345 -1.572894 
rclavicle 0.000000 0.000000 
rhumerus -39.399944 -17.014517 -81.616734 
rradius 30.599878 
rwrist 26.820573 
rhand -18.639948 -19.871027 
rfingers 0.000000 
rthumb 7.652671 -49.712653 
lclavicle 0.000000 0.000000 
lhumerus -43.289411 38.623327 65.735446 
lradius 24.152248 
lwrist -61.327874 
lhand -21.245112 3.418406 
lfingers 0.000000 
lthumb 5.137702 33.336154 
rfemur -29.291834 -9.927214 13.003733 
rtibia 86.115026 
rfoot 0.544955 -5.526597 
rtoes -34.689965 
lfemur -27.996124 -1.430068 -27.635630 
ltibia 29.923062 
lfoot -8.334443 2.208761 
ltoes -21.380545 
162
root -7.124192 17.694506 -4.860963 10.263748 -0.528745 3.500807
lowerback -12.142292 1.916919 -3.096977 
upperback 0.482114 3.093303 -1.274663 
thorax 7.239511 1.417255 0.956586 
lowerneck -2.488938 -1.329031 2.622283 
upperneck 0.339870 -1.813748 -3.656031 
head 0.463854 -0.930590 -1.594669 
rclavicle 0.000000 0.000000 
rhumerus -39.707729 -16.831076 -81.570253 
rradius 30.638548 
rwrist 26.771002 
rhand -18.549772 -19.807781 
rfingers 0.000000 
rthumb 7.739741 -49.646134 
lclavicle 0.000000 0.000000 
lhumerus -42.277945 38.217523 66.794523 
lradius 24.276063 
lwrist -60.444831 
lhand -21.254977 3.024193 
lfingers 0.000000 
lthumb 5.128179 32.942146 
rfemur -30.530626 -10.108077 13.032806 
rtibia 87.252321 
rfoot 0.301101 -4.870873 
rtoes -34.608348 
lfemur -27.610680 -1.297775 -27.709796 
ltibia 29.955430 
lfoot -8.499664 2.010444 
ltoes -21.341402 
163
root -7.106445 17.698062 -4.788125 10.166126 -0.514034 3.530664
lowerback -12.013857 1.807620 -3.069296 
upperback 0.516217 2.938421 -1.259077 
thorax 7.209021 1.342970 0.925747 
lowerneck -2.500783 -1.252120 2.612317 
upperneck 0.395271 -1.709881 -3.640330 
head 0.486665 -0.878858 -1.587527 
rclavicle 0.000000 0.000000 
rhumerus -40.032153 -16.622674 -81.530890 
rradius 30.709862 
rwrist 26.642299 
rhand -18.425202 -19.720488 
rfingers 0.000000 
rthumb 7.859934 -49.554384 
lclavicle 0.000000 0.000000 
lhumerus -41.369195 38.026440 67.665835 
lradius 24.325682 
lwrist -60.385718 
lhand -21.182615 2.891106 
lfingers 0.000000 
lthumb 5.197979 32.807323 
rfemur -31.833430 -10.257191 13.021392 
rtibia 88.341234 
rfoot 0.057096 -4.214431 
rtoes -35.554936 
lfemur -27.226908 -1.142226 -27.848738 
ltibia 29.951726 
lfoot -8.663067 1.830694 
ltoes -21.860176 
164
root -7.088904 17.701619 -4.715440 10.033254 -0.479031 3.550491
lowerback -11.865047 1.689574 -3.058979 
upperback 0.568702 2.772394 -1.219939 
thorax 7.184908 1.261824 0.927599 
lowerneck -2.501307 -1.168185 2.624259 
upperneck 0.415677 -1.597325 -3.681764 
head 0.496579 -0.822978 -1.601996 
rclavicle 0.000000 0.000000 
rhumerus -40.340978 -16.500843 -81.429071 
rradius 30.716181 
rwrist 26.861159 
rhand -18.326786 -19.589879 
rfingers 0.000000 
rthumb 7.954961 -49.420212 
lclavicle 0.000000 0.000000 
lhumerus -40.441858 37.766661 68.601738 
lradius 24.370259 
lwrist -60.318160 
lhand -21.426086 2.996909 
lfingers 0.000000 
lthumb 4.962932 32.918781 
rfemur -33.067806 -10.436321 13.053101 
rtibia 89.343304 
rfoot -0.109198 -3.554889 
rtoes -36.654699 
lfemur -26.789470 -1.009132 -27.972316 
ltibia 29.917137 
lfoot -8.806842 1.672186 
ltoes -22.414292 
